<svg width="23" height="25" viewBox="0 0 23 25" fill="none" xmlns="http://www.w3.org/2000/svg">
<path d="M13.7536 19.2847H8.99715C6.91979 19.2847 5.22925 17.4921 5.22925 15.2892V10.2455C5.22925 8.04265 6.91979 6.25 8.99715 6.25H13.7679C15.8453 6.25 17.5358 8.04265 17.5358 10.2455V15.3044C17.5215 17.4921 15.831 19.2847 13.7536 19.2847ZM8.99715 7.22229C7.43555 7.22229 6.16048 8.57437 6.16048 10.2303V15.2892C6.16048 16.9451 7.43555 18.2972 8.99715 18.2972H13.7679C15.3295 18.2972 16.6046 16.9451 16.6046 15.2892V10.2455C16.6046 8.58956 15.3295 7.23748 13.7679 7.23748H8.99715V7.22229Z" fill="#171926"/>
<path d="M11.3752 16.064C9.65604 16.064 8.26636 14.5904 8.26636 12.7674C8.26636 10.9443 9.65604 9.4707 11.3752 9.4707C13.0944 9.4707 14.4841 10.9443 14.4841 12.7674C14.4841 14.5904 13.0944 16.064 11.3752 16.064ZM11.3752 10.4734C10.1861 10.4734 9.21192 11.5064 9.21192 12.7674C9.21192 14.0283 10.1861 15.0613 11.3752 15.0613C12.5643 15.0613 13.5386 14.0283 13.5386 12.7674C13.5386 11.5064 12.5643 10.4734 11.3752 10.4734Z" fill="#171926"/>
<path d="M15.6303 9.10618C15.6303 9.57713 15.2721 9.97212 14.8137 9.97212C14.3696 9.97212 13.9971 9.59232 13.9971 9.10618C13.9971 8.63523 14.3552 8.24023 14.8137 8.24023C15.2721 8.25543 15.6303 8.63523 15.6303 9.10618Z" fill="#171926"/>
<path d="M15.9456 24.8297H6.80516C3.05157 24.8297 0 21.5938 0 17.6135V7.92102C0 3.94072 3.05157 0.704834 6.80516 0.704834H15.9312C19.6848 0.704834 22.7364 3.94072 22.7364 7.92102V17.5983C22.7507 21.5938 19.6991 24.8297 15.9456 24.8297ZM6.80516 1.7075C3.58166 1.7075 0.945558 4.48764 0.945558 7.92102V17.5983C0.945558 21.0165 3.56733 23.8118 6.80516 23.8118H15.9312C19.1547 23.8118 21.7908 21.0317 21.7908 17.5983V7.92102C21.7908 4.50283 19.169 1.7075 15.9312 1.7075H6.80516Z" fill="#171926"/>
</svg>
