<svg width="23" height="27" viewBox="0 0 23 27" fill="none" xmlns="http://www.w3.org/2000/svg">
<path d="M13.7538 20.0728H8.9974C6.92004 20.0728 5.22949 18.1361 5.22949 15.7562V10.3072C5.22949 7.92742 6.92004 5.99072 8.9974 5.99072H13.7682C15.8455 5.99072 17.5361 7.92742 17.5361 10.3072V15.7727C17.5218 18.1361 15.8312 20.0728 13.7538 20.0728ZM8.9974 7.04113C7.4358 7.04113 6.16072 8.50186 6.16072 10.2908V15.7562C6.16072 17.5452 7.4358 19.006 8.9974 19.006H13.7682C15.3298 19.006 16.6048 17.5452 16.6048 15.7562V10.3072C16.6048 8.51827 15.3298 7.05754 13.7682 7.05754H8.9974V7.04113Z" fill="#171926"/>
<path d="M11.3755 16.5933C9.65629 16.5933 8.2666 15.0013 8.2666 13.0318C8.2666 11.0622 9.65629 9.47021 11.3755 9.47021C13.0947 9.47021 14.4844 11.0622 14.4844 13.0318C14.4844 15.0013 13.0947 16.5933 11.3755 16.5933ZM11.3755 10.5534C10.1864 10.5534 9.21216 11.6695 9.21216 13.0318C9.21216 14.394 10.1864 15.5101 11.3755 15.5101C12.5646 15.5101 13.5388 14.394 13.5388 13.0318C13.5388 11.6695 12.5646 10.5534 11.3755 10.5534Z" fill="#171926"/>
<path d="M15.6303 9.07615C15.6303 9.58494 15.2721 10.0117 14.8137 10.0117C14.3696 10.0117 13.9971 9.60135 13.9971 9.07615C13.9971 8.56735 14.3552 8.14062 14.8137 8.14062C15.2721 8.15704 15.6303 8.56735 15.6303 9.07615Z" fill="#171926"/>
<path d="M15.9456 26.0633H6.80516C3.05157 26.0633 0 22.5674 0 18.2673V7.79601C0 3.49589 3.05157 0 6.80516 0H15.9312C19.6848 0 22.7364 3.49589 22.7364 7.79601V18.2509C22.7507 22.5674 19.6991 26.0633 15.9456 26.0633ZM6.80516 1.08323C3.58166 1.08323 0.945558 4.08675 0.945558 7.79601V18.2509C0.945558 21.9437 3.56733 24.9636 6.80516 24.9636H15.9312C19.1547 24.9636 21.7908 21.9601 21.7908 18.2509V7.79601C21.7908 4.10316 19.169 1.08323 15.9312 1.08323H6.80516Z" fill="#171926"/>
</svg>
