<svg width="180" height="39" viewBox="0 0 180 39" fill="none" xmlns="http://www.w3.org/2000/svg">
<g clip-path="url(#clip0_20_570)">
<path d="M0 27.0849H4.08892C4.52702 33.5213 8.06101 37.3656 14.6325 37.3656C20.2109 37.3656 24.9132 34.5115 24.9132 29.5313C24.9132 25.3375 21.7005 23.3571 16.0344 21.9301L11.3029 20.7069C5.08194 19.1051 1.69398 16.5713 1.69398 10.8922C1.69398 4.1938 7.5937 0 14.8077 0C22.0217 0 27.4834 3.81519 28.2427 10.5719H24.2414C23.7157 5.03838 20.5322 1.51443 14.7785 1.51443C9.40451 1.51443 5.14035 4.77627 5.14035 9.34867C5.14035 13.1639 7.62291 15.0278 12.6172 16.3092L18.1081 17.7071C24.2999 19.2507 28.4764 21.668 28.4764 27.9004C28.4764 35.5599 21.7005 38.88 14.6033 38.88C6.27941 38.88 0.642544 34.8609 0 27.0849Z" fill="#171926"/>
<path d="M52.3383 26.4444H34.8144L30.1413 38.3559H28.1553L43.0506 0.844727H46.3802L62.1809 38.3559H57.3034L52.3383 26.4444ZM43.3135 4.83466L35.4569 24.8426H51.6373L43.3135 4.83466Z" fill="#171926"/>
<path d="M71.1766 38.3266V23.8231L57.8584 0.81543H63.0864L74.9442 21.4641L86.2764 0.81543H88.3208L75.7328 23.5318V38.3266H71.1766Z" fill="#171926"/>
<path d="M105.903 38.3266V23.8231L92.585 0.81543H97.8129L109.671 21.4641L121.003 0.81543H123.047L110.459 23.5318V38.3266H105.903Z" fill="#171926"/>
<path d="M150.764 38.3266H125.004V0.81543H150.443V2.41723H129.589V18.1731H149.041V19.7749H129.589V36.7248H150.764V38.3266Z" fill="#171926"/>
<path d="M151.465 27.0849H155.554C155.992 33.5213 159.526 37.3656 166.098 37.3656C171.676 37.3656 176.379 34.5115 176.379 29.5313C176.379 25.3375 173.166 23.3571 167.5 21.9301L162.768 20.7069C156.518 19.1051 153.159 16.5713 153.159 10.8922C153.159 4.1938 159.059 0 166.273 0C173.487 0 178.949 3.81519 179.708 10.5719H175.736C175.21 5.03838 172.027 1.51443 166.273 1.51443C160.899 1.51443 156.664 4.77627 156.664 9.34867C156.664 13.1639 159.147 15.0278 164.141 16.3092L169.632 17.7071C175.824 19.2507 180 21.668 180 27.9004C180 35.5599 173.224 38.88 166.127 38.88C157.774 38.88 152.108 34.8609 151.465 27.0849Z" fill="#171926"/>
</g>
<defs>
<clipPath id="clip0_20_570">
<rect width="180" height="38.88" fill="white"/>
</clipPath>
</defs>
</svg>
